<svg width="49" height="36" viewBox="0 0 49 36" fill="none" xmlns="http://www.w3.org/2000/svg">
<path d="M43.1667 0.666626H5.83333C4.41885 0.666626 3.06229 1.22853 2.0621 2.22872C1.0619 3.22892 0.5 4.58547 0.5 5.99996L0.5 30C0.5 31.4144 1.0619 32.771 2.0621 33.7712C3.06229 34.7714 4.41885 35.3333 5.83333 35.3333H43.1667C44.5812 35.3333 45.9377 34.7714 46.9379 33.7712C47.9381 32.771 48.5 31.4144 48.5 30V5.99996C48.5 4.58547 47.9381 3.22892 46.9379 2.22872C45.9377 1.22853 44.5812 0.666626 43.1667 0.666626Z" fill="#006C35"/>
<path d="M12.3921 12.7333C13.2348 12.8133 12.7695 11.3079 13.0748 11.0346C13.1321 10.8999 13.2388 10.8986 13.2468 11.0693V12.3466C13.2388 12.7626 13.5121 12.8839 13.7241 12.9706C13.9455 12.9533 14.0921 12.9613 14.1788 13.1759L14.2828 15.3866C14.2828 15.3866 14.7948 15.5333 14.8188 14.1426C14.8441 13.3266 14.6561 12.6439 14.7668 12.4853C14.7708 12.3293 14.9695 12.3199 15.1081 12.3959C15.3281 12.5506 15.4268 12.7426 15.7681 12.6666C16.2895 12.5239 16.6015 12.2706 16.6095 11.8706C16.5788 11.4906 16.5361 11.1106 16.3721 10.7306C16.3948 10.6613 16.2721 10.4826 16.2948 10.4133C16.3881 10.5599 16.5308 10.5479 16.5628 10.4133C16.4748 10.1213 16.3375 9.84127 16.1135 9.71994C15.9295 9.55727 15.6601 9.5906 15.5615 9.92927C15.5161 10.3186 15.7028 10.7826 15.9855 11.1599C16.0455 11.3079 16.1308 11.5533 16.0935 11.7746C15.9428 11.8599 15.7908 11.8253 15.6655 11.6919C15.6655 11.6919 15.2508 11.3813 15.2508 11.3119C15.3615 10.6079 15.2761 10.5279 15.2148 10.3333C15.1721 10.0639 15.0441 9.97727 14.9401 9.79327C14.8361 9.68394 14.6961 9.68394 14.6295 9.79327C14.4455 10.1106 14.5308 10.7933 14.6641 11.0986C14.7588 11.3786 14.9055 11.5559 14.8361 11.5559C14.7788 11.7146 14.6615 11.6773 14.5761 11.4946C14.4535 11.1159 14.4295 10.5519 14.4295 10.2973C14.3921 9.9826 14.3521 9.30927 14.1455 9.1386C14.0188 8.9666 13.8308 9.04927 13.7655 9.20794C13.7521 9.51994 13.7495 9.83327 13.7855 10.1226C13.9268 10.6279 13.9721 11.0733 14.0415 11.5919C14.0601 12.2866 13.6401 11.8933 13.6588 11.5493C13.7561 11.1026 13.7308 10.3986 13.6441 10.2199C13.5761 10.0426 13.4948 9.99727 13.3295 10.0266C13.1988 10.0159 12.8601 10.3866 12.7641 10.9999C12.7641 10.9999 12.6828 11.3159 12.6481 11.5973C12.6015 11.9146 12.3935 12.1386 12.2468 11.5533C12.1201 11.1279 12.0428 10.0786 11.8308 10.3239C11.7695 11.1439 11.6961 12.5866 12.3921 12.7333Z" fill="white"/>
<path d="M13.6598 13.3319C12.9665 13.3452 11.9518 14.2426 11.9238 14.7399C12.6545 14.3879 13.3732 14.0492 14.1172 13.6866C13.9972 13.5066 14.1105 13.3452 13.6598 13.3319Z" fill="white"/>
<path d="M17.4824 16.0213C17.8037 14.9506 17.4304 14.1613 17.6051 14.1653C17.9744 14.564 18.4917 14.2186 18.6051 14.08C18.6544 14.0106 18.7757 13.9653 18.8611 14.056C19.1504 14.264 19.6597 14.1653 19.7651 13.8C19.8317 13.433 19.8727 13.0619 19.8877 12.6893C19.6517 12.7626 19.4757 12.812 19.4597 12.9093L19.4104 13.2266C19.3904 13.3293 19.1864 13.3333 19.1784 13.2026C19.0891 12.796 18.7184 12.7426 18.4944 13.3733C18.3437 13.496 18.0717 13.52 18.0424 13.3373C18.0784 12.9146 17.9077 12.8573 17.5664 13.056C17.4571 12.2173 17.3464 11.416 17.2371 10.5773C17.3797 10.5733 17.5104 10.6786 17.6397 10.516C17.4971 10.072 17.1957 9.16529 17.0291 9.09996C16.9477 9.00129 16.8784 9.06263 16.7731 9.08796C16.5944 9.14529 16.4277 9.29996 16.4797 9.59996C16.6917 10.8866 16.8304 11.8666 17.0411 13.1533C17.0731 13.304 16.9477 13.5026 16.7851 13.4826C16.5091 13.296 16.4397 12.9173 15.9677 12.9333C15.6251 12.9373 15.2344 13.308 15.1864 13.6666C15.1291 13.9506 15.1091 14.26 15.1864 14.5093C15.4264 14.7973 15.7157 14.7693 15.9677 14.704C16.1744 14.6186 16.3464 14.4106 16.4184 14.46C16.4677 14.52 16.4304 15.204 15.4424 15.7293C14.8437 15.9973 14.3677 16.0586 14.1117 15.5706C13.9531 15.2653 14.1237 14.1053 13.7331 14.3746C12.5771 17.3546 16.4397 17.768 16.8717 14.4973C16.9131 14.3626 17.0757 14.228 17.1037 14.448C17.0144 17.4106 14.1157 17.6146 13.6237 16.6826C13.5011 16.4626 13.4651 15.9746 13.4531 15.6813C13.3797 15.0986 13.0744 15.3226 13.0264 15.9C12.9771 16.2213 12.9904 16.312 12.9904 16.62C13.1437 18.96 16.8771 17.9546 17.4824 16.0213ZM16.0424 13.9973C16.0184 14.0426 15.9131 14.024 15.8357 14.024C15.7477 14.02 15.7064 14.0053 15.6531 13.9346C15.6291 13.8546 15.7037 13.7786 15.7371 13.7186C15.7784 13.648 16.0011 13.5746 16.0797 13.772C16.0943 13.8094 16.0985 13.8501 16.092 13.8897C16.0854 13.9294 16.0683 13.9665 16.0424 13.9973Z" fill="white"/>
<path d="M18.636 11.3453C18.868 11.26 19.968 10.0027 19.968 10.0027C19.9106 9.95334 19.86 9.91734 19.8026 9.868C19.7413 9.81467 19.748 9.76134 19.8026 9.70934C20.0746 9.55067 19.988 9.20267 19.8453 9.044C19.753 8.99873 19.6515 8.97564 19.5487 8.97657C19.4459 8.97749 19.3448 9.00241 19.2533 9.04934C19.0626 9.232 19.0173 9.52534 19.168 9.70934C19.3146 9.77867 19.4613 9.92667 19.364 10.008C18.9146 10.488 17.6826 11.316 17.8253 11.3453C17.856 11.3853 18.612 11.384 18.636 11.3453ZM19.4506 9.37067C19.5213 9.35334 19.612 9.416 19.6546 9.50934C19.6973 9.60267 19.6746 9.692 19.6053 9.70934H19.6026C19.5333 9.72667 19.4426 9.664 19.4 9.57067C19.3586 9.476 19.3813 9.388 19.4506 9.37067ZM12.316 17.0107C12.1346 17.38 12.0586 17.1267 12.0426 16.92C12.0218 16.5729 12.0393 16.2246 12.0946 15.8813C12.14 15.588 12.0946 15.6773 12.0013 15.796C11.5893 16.452 11.5533 17.4333 11.7813 17.7253C11.9013 17.864 12.1 17.9253 12.248 17.88C12.5066 17.768 12.62 17.2427 12.5586 17.052C12.4706 16.9173 12.4026 16.896 12.316 17.0107ZM25.8906 10.0667C26.3653 10.704 26.816 11.3533 27.2573 12.0147C27.344 12.588 27.4066 13.148 27.444 13.704C27.5173 14.776 27.5386 15.936 27.472 17.0653C27.672 17.0733 27.996 16.74 28.108 16.2533C28.1813 15.58 28.0813 14.3813 28.0746 13.984C28.0658 13.735 28.0538 13.4861 28.0386 13.2373C28.564 14.096 29.076 14.9947 29.576 15.9933C29.7586 15.908 29.7186 14.8867 29.612 14.7427C29.212 13.8853 28.6613 13.0373 28.4853 12.712C28.42 12.592 28.1973 12.2507 27.932 11.86C27.9092 11.5482 27.8718 11.2376 27.82 10.9293C27.7373 10.3587 28.056 10.992 28.012 10.66C27.9093 10.0893 27.592 9.704 27.2213 9.18134C27.1013 9.012 27.1053 8.97734 26.92 9.22267C26.8545 9.36965 26.8243 9.52994 26.832 9.69067C26.7741 9.60558 26.7123 9.52327 26.6466 9.444C26.4454 9.27038 26.2432 9.09793 26.04 8.92667C25.9053 8.83067 25.5773 8.65734 25.5186 8.94534C25.4913 9.14721 25.5013 9.35238 25.548 9.55067C25.5826 9.69334 25.7893 9.93067 25.8906 10.0667ZM26.8773 10.0347C26.9026 10.1453 26.9293 10.256 26.9466 10.3693L26.9666 10.4773C26.9107 10.3992 26.8525 10.3227 26.792 10.248C26.5733 9.98934 26.7546 10.0453 26.8773 10.0347Z" fill="white"/>
<path d="M29.7255 16.2573C29.2615 16.7413 28.5922 17.3373 27.8642 17.6133C27.7855 17.7013 28.0588 18.0787 28.4108 18.0787C29.0015 18.0093 29.5215 17.6773 30.0028 16.804C30.1322 16.6013 30.3588 16.1653 30.3642 15.8267C30.4082 13.8453 30.2655 12.3027 29.9682 10.8707C29.9483 10.7558 29.9537 10.6379 29.9842 10.5253C30.0215 10.48 30.1522 10.5253 30.2215 10.4133C30.3215 10.3093 29.9535 9.456 29.7428 9.128C29.6682 8.98133 29.6428 8.88267 29.5188 9.14534C29.3882 9.35867 29.3015 9.73067 29.3122 10.0773C29.5935 12.028 29.6802 13.736 29.8642 15.6867C29.8788 15.8747 29.8508 16.1493 29.7255 16.2573ZM37.4988 11.3107C37.4788 11.172 37.4175 10.8493 37.4415 10.808C37.4788 10.7093 37.6722 10.8187 37.7415 10.7053C37.8428 10.6027 37.2428 9.832 37.0335 9.504C36.9575 9.35734 36.9322 9.25867 36.8082 9.52133C36.6775 9.73467 36.6322 10.1173 36.6842 10.4533C36.9975 12.572 37.2308 14.164 37.2788 16.0427C37.2508 16.2213 37.2455 16.3173 37.1615 16.5413C36.9762 16.7787 36.7722 17.0747 36.5788 17.2187C36.3868 17.3613 35.9775 17.4987 35.8428 17.604C35.4202 17.8507 35.4188 18.132 35.7628 18.1413C36.3522 18.072 37.0508 18.024 37.5322 17.296C37.6615 17.0933 37.8148 16.5427 37.8215 16.204C37.8655 14.2227 37.7962 12.7427 37.4988 11.3107ZM33.0308 12.96C33.0362 12.688 33.0615 12.328 33.0762 12.1027C33.0828 12.0187 33.1028 11.924 33.1828 11.9027C33.2642 11.8813 33.4082 11.9853 33.4095 11.8973C33.3935 11.7253 33.3588 11.4693 33.2615 11.348C33.1282 11.1507 32.7748 11.1987 32.7122 11.508C32.7135 11.6227 32.7655 11.684 32.7562 11.788C32.7402 11.8467 32.6788 11.8867 32.5335 11.8173C32.5575 11.796 32.4388 11.632 32.4388 11.632C32.3255 11.5627 32.1735 11.636 32.0762 11.6987C32.041 11.7659 32.0199 11.8396 32.0144 11.9153C32.0089 11.991 32.0191 12.0671 32.0442 12.1387C32.2042 12.4413 32.7628 12.9547 33.0308 12.96Z" fill="white"/>
<path d="M32.8427 10.6413C33.2334 11.12 33.6321 11.6053 34.0334 12.0986C34.1201 13.2 34.1427 14.1013 34.2281 15.2026C34.2161 15.6693 34.0721 16.076 33.9347 16.1346C33.9347 16.1346 33.7281 16.2546 33.5894 16.1226C33.4881 16.0813 33.0841 15.4493 33.0841 15.4493C32.8774 15.26 32.7414 15.3133 32.5947 15.4493C32.1894 15.84 32.0067 16.5733 31.7321 17.0773C31.6601 17.1906 31.4601 17.2866 31.2374 17.0693C30.6734 16.2973 31.0041 15.2 30.9347 15.4826C30.4321 16.0493 30.6534 16.9866 30.7667 17.1893C30.9321 17.52 31.0667 17.7333 31.3894 17.8973C31.6827 18.1133 31.9121 17.9773 32.0374 17.8266C32.3334 17.5186 32.3374 16.7386 32.4761 16.5813C32.5721 16.2973 32.8187 16.3453 32.9374 16.472C33.0461 16.6253 33.1902 16.7502 33.3574 16.836C33.6334 17.08 33.9627 17.124 34.2867 16.9013C34.5081 16.7773 34.6534 16.616 34.7827 16.2973C34.9267 15.9133 34.8481 14.148 34.8187 13.0893C35.0254 13.356 35.2267 13.6346 35.4307 13.9133C35.5201 14.7973 35.5707 15.6773 35.5414 16.576C35.5201 16.756 36.1681 16.0426 36.1627 15.704C36.1601 15.4306 36.1627 15.1826 36.1627 14.9493C36.4747 15.4186 36.7787 15.9026 37.0641 16.4146C37.2427 16.3213 37.1841 15.3146 37.0707 15.176C36.7414 14.624 36.3027 14.0493 36.0001 13.6386C35.9801 13.5866 35.9694 13.528 35.9454 13.4786C35.8241 13.1973 35.9001 12.9706 35.8427 12.672C35.7867 12.372 35.8014 11.924 35.7147 11.568C35.6907 11.4293 35.6187 10.984 35.6401 10.9426C35.6747 10.8426 35.8081 10.9453 35.8734 10.8306C35.9707 10.724 35.5361 9.5973 35.3147 9.27464C35.2347 9.13064 35.0907 9.17997 34.9121 9.41464C34.7481 9.5693 34.8094 9.9213 34.8721 10.256C35.0281 11.0666 35.1587 11.844 35.2707 12.6133C35.031 12.2945 34.7887 11.9776 34.5441 11.6626L34.5334 11.604C34.5334 11.5893 34.4974 10.9053 34.4654 10.7426C34.4601 10.6773 34.4441 10.6573 34.5134 10.6653C34.5867 10.7266 34.5961 10.7306 34.6427 10.752C34.7174 10.7653 34.7827 10.6386 34.7387 10.5226L34.0494 9.2533C33.9947 9.19864 33.9227 9.13997 33.8361 9.26797C33.7823 9.31497 33.7392 9.37298 33.7097 9.43808C33.6803 9.50318 33.6652 9.57385 33.6654 9.6453C33.6867 9.9453 33.7387 10.252 33.7587 10.5533L33.7881 10.716C33.7574 10.68 33.7201 10.6346 33.7041 10.6186C33.1187 10.0026 33.9734 10.5186 33.5921 10.0426C33.2694 9.68797 33.1761 9.5773 32.8987 9.36397C32.7601 9.27464 32.6761 9.10397 32.6307 9.39464C32.6079 9.64951 32.6012 9.90558 32.6107 10.1613C32.6107 10.284 32.7347 10.508 32.8427 10.6413ZM20.9747 12.08C21.3107 12.2186 21.5254 11.5786 21.6641 10.8773C21.7574 10.68 21.8294 10.6586 21.8774 10.76C21.8654 11.6933 21.9441 11.9 22.1841 12.184C22.7187 12.5973 23.1614 12.236 23.1974 12.2013L23.6134 11.7853C23.7054 11.688 23.8294 11.6813 23.9601 11.768C24.0881 11.8826 24.0707 12.0826 24.3427 12.2213C24.5721 12.3133 25.0627 12.2426 25.1761 12.0453C25.3294 11.784 25.3667 11.6933 25.4361 11.5946C25.5454 11.4493 25.7321 11.5146 25.7321 11.56C25.7147 11.6413 25.6054 11.7226 25.6801 11.868C25.8107 11.9653 25.8401 11.9026 25.9174 11.8813C26.1894 11.7506 26.3921 11.1613 26.3921 11.1613C26.4041 10.9413 26.2814 10.96 26.2014 11.0053C26.0974 11.068 26.0907 11.0893 25.9867 11.1533C25.8534 11.1733 25.5961 11.2613 25.4694 11.064C25.3387 10.8266 25.3361 10.496 25.2374 10.2573C25.2374 10.24 25.0641 9.87997 25.2254 9.8573C25.3067 9.87197 25.4787 9.9173 25.5067 9.7733C25.5907 9.63197 25.3241 9.2293 25.1427 9.0253C24.9841 8.85197 24.7641 8.83064 24.5521 9.00797C24.4027 9.1453 24.4241 9.2973 24.3947 9.44264C24.3705 9.5452 24.3706 9.65199 24.3949 9.75453C24.4192 9.85707 24.4671 9.95253 24.5347 10.0333C24.6827 10.3253 24.9534 10.7026 24.8641 11.2306C24.8641 11.2306 24.7067 11.4813 24.4307 11.4493C24.3161 11.424 24.1294 11.3746 24.0307 10.6413C23.9561 10.0853 24.0494 9.30797 23.8134 8.94397C23.7281 8.72397 23.6667 8.51197 23.4587 8.88797C23.4027 9.03597 23.1627 9.25997 23.3374 9.72264C23.4801 10.0146 23.5374 10.4906 23.4734 11.0213C23.3747 11.172 23.3534 11.2226 23.2241 11.3733C23.0427 11.568 22.8467 11.5186 22.6961 11.4453C22.5547 11.3506 22.4454 11.3013 22.3814 11C22.3934 10.52 22.4201 9.7333 22.3321 9.56664C22.2027 9.30797 21.9894 9.4013 21.8974 9.47997C21.4587 9.8813 21.2427 10.5573 21.1107 11.0946C20.9894 11.4866 20.8601 11.3746 20.7694 11.216C20.5481 11.008 20.5334 9.3853 20.2654 9.6533C19.8347 10.872 20.5081 12.2106 20.9747 12.08Z" fill="white"/>
<path d="M27.3492 14.6986L27.2212 14.6252L24.7132 14.6132C24.5839 14.5639 24.6225 14.5212 24.7132 14.4866C25.3119 14.4052 26.3772 14.2319 26.4479 13.2092C26.4359 12.6772 26.2185 12.3279 25.5652 12.2319C25.0865 12.2692 24.7439 12.7346 24.7985 13.2452C24.7759 13.3839 24.8439 13.6532 24.7039 13.6839C23.7825 13.7679 22.7785 14.3439 22.7452 14.7572C22.6892 14.7959 22.5639 14.6839 22.5799 14.5079C22.5355 13.7551 22.3188 13.0225 21.9465 12.3666C21.6559 12.0759 21.7465 12.1719 21.5519 12.3092C21.4265 12.4532 21.4039 12.5519 21.4105 12.8386C21.4105 12.8492 21.6452 13.5039 21.8439 13.9626C21.9759 14.4332 22.0999 14.9706 22.0105 15.4786C21.7012 16.1506 21.0785 16.7532 20.4785 17.0799C20.1692 17.1799 19.9039 17.1439 19.8385 17.0746C19.6479 16.9466 19.6572 16.7106 19.6719 16.7066C20.1772 16.3532 20.7559 16.0692 21.2092 15.1186C21.3425 14.7559 21.3825 14.5359 21.2505 13.9746C21.2138 13.7768 21.1229 13.593 20.9879 13.4439C21.0692 13.3906 21.3025 13.5679 21.3385 13.4626C21.2709 13.1553 21.1179 12.8734 20.8972 12.6492C20.7172 12.4852 20.5212 12.4666 20.3559 12.6172C20.1692 12.7212 20.1292 13.0919 20.2185 13.4172C20.3172 13.6626 20.5852 13.7039 20.7772 14.1959C20.7772 14.2066 20.8465 14.5639 20.7479 14.7039C20.6692 14.9492 19.6492 15.7506 19.5932 15.7866C19.5652 15.8212 19.5772 15.7692 19.5732 15.6359C19.5665 15.4732 19.6385 15.0892 19.6185 15.0866C19.2865 15.3012 19.1759 15.9586 19.1159 16.1532C18.2759 16.7332 17.3252 17.1652 16.7759 17.7546C16.4892 18.2012 18.7465 17.2412 19.0092 17.1252C19.0679 17.1679 19.0612 17.3692 19.2185 17.5492C19.4532 17.8666 19.9492 18.0626 20.4359 17.9412C21.2492 17.6466 21.7199 17.0919 22.1972 16.4772C22.2652 16.3772 22.3719 16.3012 22.4705 16.3772C22.7985 17.1119 23.7465 17.6319 24.9692 17.6866C25.2532 17.3412 25.1159 17.1746 25.0012 17.1026C25.0012 17.0919 24.3972 16.8626 24.3052 16.6332C24.2492 16.4252 24.3852 16.2426 24.6572 16.1039C25.4425 16.0092 26.2145 15.9039 26.9625 15.6639C26.9705 15.4132 27.1159 15.0372 27.2159 14.8746C27.3119 14.7092 27.3639 14.7586 27.3492 14.6986ZM25.2865 13.1359C25.3239 13.0732 25.4479 13.0759 25.5639 13.1439C25.6799 13.2106 25.7452 13.3172 25.7065 13.3799C25.6692 13.4439 25.5439 13.4399 25.4279 13.3719C25.3119 13.3052 25.2492 13.1999 25.2865 13.1359ZM24.2772 15.6692C24.0079 15.7612 23.7492 15.8332 23.7492 16.2226C23.8492 16.7639 23.6119 16.5786 23.4719 16.5039C23.3065 16.3852 22.8412 16.0986 22.7745 15.4799C22.7639 15.3319 22.8799 15.2079 23.0652 15.2079C23.3439 15.2839 23.7559 15.2892 24.1132 15.3266C24.4052 15.3452 24.5505 15.5746 24.2772 15.6692ZM14.9879 9.66258C15.2759 9.80124 15.8199 9.74258 15.7959 9.27591C15.7959 9.23458 15.7852 9.09591 15.7812 9.05858C15.7225 8.92124 15.5625 8.95458 15.5252 9.09724C15.5132 9.14391 15.5452 9.21858 15.5039 9.24258C15.4799 9.26658 15.3879 9.25191 15.3919 9.12391C15.3919 9.08258 15.3612 9.03858 15.3439 9.01325C15.3252 9.00125 15.3145 8.99724 15.2812 8.99724C15.2412 8.99858 15.2412 9.00924 15.2199 9.04391C15.2105 9.07724 15.1972 9.11191 15.1972 9.15058C15.1919 9.19591 15.1745 9.21191 15.1412 9.21991C15.1039 9.21991 15.1119 9.22391 15.0825 9.20391C15.0639 9.18391 15.0412 9.17591 15.0412 9.14258C15.0411 9.10361 15.0348 9.0649 15.0225 9.02791C15.0065 9.00658 14.9812 8.99724 14.9519 8.98924C14.7945 8.98924 14.7839 9.16924 14.7932 9.23858C14.7785 9.25058 14.7732 9.57324 14.9879 9.66258Z" fill="white"/>
<path d="M23.8494 12.7026C23.8494 12.6613 23.8187 12.6186 23.8014 12.592C23.7827 12.58 23.7721 12.576 23.7387 12.576C23.6987 12.5773 23.7001 12.588 23.6774 12.6226C23.6681 12.6573 23.6547 12.6906 23.6547 12.7293C23.6507 12.776 23.6321 12.792 23.5987 12.7986C23.5614 12.7986 23.5694 12.8026 23.5387 12.784C23.5201 12.764 23.4974 12.756 23.4974 12.7226C23.4974 12.6837 23.4911 12.6449 23.4787 12.608C23.4627 12.5866 23.4374 12.5773 23.4081 12.5706C23.2507 12.5706 23.2401 12.7506 23.2481 12.8186C23.2361 12.832 23.2294 13.1533 23.4441 13.244C23.7334 13.3813 24.4201 13.3013 24.2521 12.8573C24.2492 12.7843 24.2444 12.7114 24.2374 12.6386C24.1787 12.5013 24.0174 12.536 23.9814 12.6773C23.9707 12.724 24.0027 12.7986 23.9601 12.8226C23.9387 12.8466 23.8454 12.832 23.8494 12.7026ZM28.3787 11.76C28.6667 11.8986 29.2094 11.84 29.1854 11.3746C29.1826 11.3016 29.1777 11.2287 29.1707 11.156C29.1121 11.0186 28.9521 11.0533 28.9161 11.1946C28.9041 11.2413 28.9361 11.316 28.8934 11.34C28.8694 11.364 28.7774 11.3506 28.7814 11.2213C28.7814 11.18 28.7507 11.136 28.7334 11.1106C28.7147 11.0986 28.7041 11.0946 28.6694 11.0946C28.6294 11.0973 28.6307 11.1066 28.6081 11.1413C28.5987 11.176 28.5854 11.2093 28.5854 11.248C28.5801 11.2946 28.5627 11.3106 28.5294 11.3173C28.4921 11.3173 28.5001 11.3213 28.4694 11.3026C28.4507 11.2826 28.4294 11.2746 28.4294 11.2413C28.4293 11.2019 28.423 11.1628 28.4107 11.1253C28.3934 11.104 28.3694 11.0946 28.3387 11.088C28.1814 11.088 28.1707 11.268 28.1801 11.336C28.1707 11.3493 28.1641 11.6706 28.3787 11.76ZM28.5734 9.9573C28.6761 10.2453 28.4947 10.52 28.6027 10.56C28.7001 10.6053 28.8387 10.2626 28.8894 9.94663C28.9494 9.69063 28.7667 9.16663 28.5081 9.05863C28.3507 9.0213 28.1267 9.11463 28.1987 9.3253C28.1627 9.42663 28.5161 9.77063 28.5734 9.9573ZM31.2334 16.7093C31.4347 16.7106 31.6667 16.2493 31.7654 15.792C31.8201 15.1626 31.7281 14.78 31.7121 14.4093C31.6947 14.04 31.2947 11.22 31.2121 10.94C31.1147 10.4106 31.6027 10.8693 31.5494 10.5613C31.3801 10.1733 30.9601 9.6093 30.8267 9.27197C30.7467 9.12797 30.7814 8.99996 30.6027 9.23463C30.4387 9.77463 30.3814 10.2146 30.4441 10.5506C30.8681 12.764 31.3027 14.604 31.2334 16.7093ZM36.2414 10.9226C36.2881 11.0666 36.1707 11.532 36.2681 11.5746C36.3574 11.6226 36.4827 11.2533 36.5294 10.9106C36.5547 10.7226 36.4174 10.0666 36.1814 9.9493C36.0374 9.9093 35.8334 10.0093 35.9001 10.2386C35.8667 10.3493 36.1894 10.72 36.2414 10.9226ZM18.7494 15.7973C18.8361 15.8333 18.9547 15.5613 19.0001 15.3093C19.0254 15.1706 18.8921 14.6893 18.6667 14.6026C18.5281 14.5733 18.3387 14.6106 18.3974 14.816C18.3907 14.9266 18.7041 15.06 18.7227 15.3173C18.7681 15.424 18.6561 15.7666 18.7494 15.7973ZM12.6747 9.64396C12.7187 9.75463 12.6307 10.108 12.7227 10.1413C12.8067 10.1786 12.9254 9.89596 12.9694 9.63597C12.9947 9.49197 12.9747 9.00397 12.6414 8.90397C12.5041 8.8733 12.3134 8.9493 12.3761 9.12397C12.3441 9.20663 12.6254 9.4893 12.6747 9.64396ZM19.2107 11.208C18.9561 11.3466 18.8561 11.7573 19.0161 11.996C19.1641 12.208 19.3987 12.1293 19.4307 12.1293C19.6814 12.16 19.8294 11.66 19.8294 11.66C19.8294 11.66 19.8374 11.52 19.5401 11.7853C19.4147 11.8093 19.3987 11.7626 19.3681 11.6906C19.3377 11.5601 19.3513 11.4233 19.4067 11.3013C19.4494 11.1773 19.3534 11.1226 19.2107 11.208ZM21.1334 9.67063C21.1745 9.64524 21.2098 9.61144 21.2369 9.57146C21.264 9.53147 21.2823 9.48621 21.2907 9.43863C21.3294 9.24397 21.0841 9.53063 21.0534 9.3133C20.9987 9.11196 21.1561 9.0293 21.3054 8.83463C21.3107 8.69997 21.3081 8.6053 21.1254 8.71463C20.9974 8.8013 20.7414 9.0653 20.7334 9.3693C20.7254 9.5413 20.6934 9.53997 20.8067 9.6493C20.8881 9.76797 20.9694 9.75596 21.1334 9.67063ZM22.8654 9.77463C23.0307 9.32663 23.0307 9.1373 23.0427 8.94663C22.9921 8.6573 22.7961 8.66663 22.6667 8.98797C22.6107 9.1093 22.5454 9.74796 22.5561 9.74796C22.5121 9.93863 22.7547 10.02 22.8654 9.77463ZM33.7587 12.952C33.7587 12.952 32.4214 13.9026 32.3894 13.936C32.2561 14.0533 32.3227 14.4693 32.3894 14.4213C32.4841 14.4586 33.8294 13.5453 33.8027 13.4386C33.8654 13.4413 33.8961 12.904 33.7587 12.952ZM33.5947 15.5306C33.6841 15.5786 33.9201 15.2866 33.9107 14.9226C33.9374 14.7346 33.8427 14.0453 33.6081 13.928C33.4641 13.888 33.2721 14.0106 33.3387 14.2386C33.3054 14.348 33.5041 14.7306 33.5561 14.9333C33.6027 15.0786 33.4974 15.488 33.5947 15.5306ZM26.0214 17.5253C26.0214 17.5373 26.1347 17.6346 26.2681 17.5573C26.5481 17.4493 26.7241 17.3453 27.1161 17.2586C27.2187 17.2573 27.2121 16.9813 27.0494 16.972C26.8374 16.9826 26.6401 16.9933 26.4281 17.1613C26.2974 17.1906 26.2761 17.112 26.2467 17.04C26.2147 16.8626 26.3201 16.74 26.2974 16.608C26.3054 16.616 26.1761 16.4973 26.0441 16.564C26.0374 16.564 25.7494 16.7586 25.6574 16.8946C25.6001 16.9386 25.6067 16.976 25.6241 17.0493C25.6681 17.1506 25.7467 17.12 25.8347 17.072C25.9521 17.056 26.0081 17.1333 25.9987 17.2733C25.9427 17.4506 26.0214 17.516 26.0214 17.5253ZM34.7561 17.7466C34.7121 17.8226 34.6827 17.9373 34.8187 17.9733C35.0694 18.044 35.6467 17.668 35.6467 17.6613C35.7401 17.5906 35.7094 17.4586 35.7014 17.4586C35.6467 17.396 35.5241 17.432 35.4414 17.4226C35.4027 17.4226 35.2721 17.4026 35.3347 17.288C35.3788 17.2261 35.4138 17.1584 35.4387 17.0866C35.4774 17 35.4441 16.9426 35.3027 16.896C35.1601 16.8693 35.1027 16.8826 34.9441 16.896C34.8587 16.9146 34.8294 16.952 34.8134 17.056C34.8201 17.2133 34.9147 17.2053 35.0134 17.268C35.0707 17.3413 35.1081 17.408 35.0094 17.5266C34.9161 17.6133 34.8507 17.6613 34.7561 17.7466ZM34.5001 24.6666H32.5001V24C32.5001 23.8231 32.4298 23.6536 32.3048 23.5286C32.1798 23.4035 32.0102 23.3333 31.8334 23.3333C31.6566 23.3333 31.487 23.4035 31.362 23.5286C31.237 23.6536 31.1667 23.8231 31.1667 24V24.6666H15.1667C15.1667 24.6666 15.1667 26 19.1667 26H31.1667V26.6666C31.1667 26.8434 31.237 27.013 31.362 27.138C31.487 27.2631 31.6566 27.3333 31.8334 27.3333C32.0102 27.3333 32.1798 27.2631 32.3048 27.138C32.4298 27.013 32.5001 26.8434 32.5001 26.6666V26H33.8334V26.6666C33.8334 26.8434 33.9036 27.013 34.0287 27.138C34.1537 27.2631 34.3232 27.3333 34.5001 27.3333C34.6769 27.3333 34.8464 27.2631 34.9715 27.138C35.0965 27.013 35.1667 26.8434 35.1667 26.6666V25.3333C35.1667 25.1565 35.0965 24.9869 34.9715 24.8619C34.8464 24.7369 34.6769 24.6666 34.5001 24.6666Z" fill="white"/>
</svg>
