<svg width="49" height="36" viewBox="0 0 49 36" fill="none" xmlns="http://www.w3.org/2000/svg">
<mask id="mask0_1497_8057" style="mask-type:luminance" maskUnits="userSpaceOnUse" x="0" y="0" width="49" height="36">
<path d="M45.0714 0.857178H3.92857C2.03502 0.857178 0.5 2.3922 0.5 4.28575V31.7143C0.5 33.6079 2.03502 35.1429 3.92857 35.1429H45.0714C46.965 35.1429 48.5 33.6079 48.5 31.7143V4.28575C48.5 2.3922 46.965 0.857178 45.0714 0.857178Z" fill="white"/>
</mask>
<g mask="url(#mask0_1497_8057)">
<path d="M45.0714 0.857178H3.92857C2.03502 0.857178 0.5 2.3922 0.5 4.28575V31.7143C0.5 33.6079 2.03502 35.1429 3.92857 35.1429H45.0714C46.965 35.1429 48.5 33.6079 48.5 31.7143V4.28575C48.5 2.3922 46.965 0.857178 45.0714 0.857178Z" fill="white"/>
<mask id="mask1_1497_8057" style="mask-type:alpha" maskUnits="userSpaceOnUse" x="0" y="0" width="49" height="36">
<path d="M45.0714 0.857178H3.92857C2.03502 0.857178 0.5 2.3922 0.5 4.28575V31.7143C0.5 33.6079 2.03502 35.1429 3.92857 35.1429H45.0714C46.965 35.1429 48.5 33.6079 48.5 31.7143V4.28575C48.5 2.3922 46.965 0.857178 45.0714 0.857178Z" fill="white"/>
</mask>
<g mask="url(#mask1_1497_8057)">
<path fill-rule="evenodd" clip-rule="evenodd" d="M48.5 0.857178H0.5V3.14289H48.5V0.857178ZM48.5 5.42861H0.5V7.71432H48.5V5.42861ZM0.5 10H48.5V12.2858H0.5V10ZM48.5 14.5715H0.5V16.8572H48.5V14.5715ZM0.5 19.1429H48.5V21.4286H0.5V19.1429ZM48.5 23.7143H0.5V26.0001H48.5V23.7143ZM0.5 28.2857H48.5V30.5714H0.5V28.2857ZM48.5 32.8572H0.5V35.1429H48.5V32.8572Z" fill="#D02F44"/>
<path d="M21.0714 0.857178H0.5V16.8572H21.0714V0.857178Z" fill="#46467F"/>
<g filter="url(#filter0_d_1497_8057)">
<path fill-rule="evenodd" clip-rule="evenodd" d="M5.07137 4.28579C5.07137 4.91697 4.55969 5.42865 3.92851 5.42865C3.29732 5.42865 2.78564 4.91697 2.78564 4.28579C2.78564 3.65462 3.29732 3.14294 3.92851 3.14294C4.55969 3.14294 5.07137 3.65462 5.07137 4.28579ZM9.64279 4.28579C9.64279 4.91697 9.13112 5.42865 8.49994 5.42865C7.86876 5.42865 7.35708 4.91697 7.35708 4.28579C7.35708 3.65462 7.86876 3.14294 8.49994 3.14294C9.13112 3.14294 9.64279 3.65462 9.64279 4.28579ZM13.0714 5.42865C13.7025 5.42865 14.2142 4.91697 14.2142 4.28579C14.2142 3.65462 13.7025 3.14294 13.0714 3.14294C12.4402 3.14294 11.9285 3.65462 11.9285 4.28579C11.9285 4.91697 12.4402 5.42865 13.0714 5.42865ZM18.7856 4.28579C18.7856 4.91697 18.274 5.42865 17.6428 5.42865C17.0116 5.42865 16.4999 4.91697 16.4999 4.28579C16.4999 3.65462 17.0116 3.14294 17.6428 3.14294C18.274 3.14294 18.7856 3.65462 18.7856 4.28579ZM6.21422 7.71436C6.8454 7.71436 7.35708 7.2027 7.35708 6.57152C7.35708 5.94033 6.8454 5.42865 6.21422 5.42865C5.58303 5.42865 5.07137 5.94033 5.07137 6.57152C5.07137 7.2027 5.58303 7.71436 6.21422 7.71436ZM11.9285 6.57152C11.9285 7.2027 11.4168 7.71436 10.7857 7.71436C10.1545 7.71436 9.64279 7.2027 9.64279 6.57152C9.64279 5.94033 10.1545 5.42865 10.7857 5.42865C11.4168 5.42865 11.9285 5.94033 11.9285 6.57152ZM15.3571 7.71436C15.9883 7.71436 16.4999 7.2027 16.4999 6.57152C16.4999 5.94033 15.9883 5.42865 15.3571 5.42865C14.7259 5.42865 14.2142 5.94033 14.2142 6.57152C14.2142 7.2027 14.7259 7.71436 15.3571 7.71436ZM18.7856 8.85722C18.7856 9.48841 18.274 10.0001 17.6428 10.0001C17.0116 10.0001 16.4999 9.48841 16.4999 8.85722C16.4999 8.22604 17.0116 7.71436 17.6428 7.71436C18.274 7.71436 18.7856 8.22604 18.7856 8.85722ZM13.0714 10.0001C13.7025 10.0001 14.2142 9.48841 14.2142 8.85722C14.2142 8.22604 13.7025 7.71436 13.0714 7.71436C12.4402 7.71436 11.9285 8.22604 11.9285 8.85722C11.9285 9.48841 12.4402 10.0001 13.0714 10.0001ZM9.64279 8.85722C9.64279 9.48841 9.13112 10.0001 8.49994 10.0001C7.86876 10.0001 7.35708 9.48841 7.35708 8.85722C7.35708 8.22604 7.86876 7.71436 8.49994 7.71436C9.13112 7.71436 9.64279 8.22604 9.64279 8.85722ZM3.92851 10.0001C4.55969 10.0001 5.07137 9.48841 5.07137 8.85722C5.07137 8.22604 4.55969 7.71436 3.92851 7.71436C3.29732 7.71436 2.78564 8.22604 2.78564 8.85722C2.78564 9.48841 3.29732 10.0001 3.92851 10.0001ZM7.35708 11.1429C7.35708 11.7741 6.8454 12.2858 6.21422 12.2858C5.58303 12.2858 5.07137 11.7741 5.07137 11.1429C5.07137 10.5118 5.58303 10.0001 6.21422 10.0001C6.8454 10.0001 7.35708 10.5118 7.35708 11.1429ZM10.7857 12.2858C11.4168 12.2858 11.9285 11.7741 11.9285 11.1429C11.9285 10.5118 11.4168 10.0001 10.7857 10.0001C10.1545 10.0001 9.64279 10.5118 9.64279 11.1429C9.64279 11.7741 10.1545 12.2858 10.7857 12.2858ZM16.4999 11.1429C16.4999 11.7741 15.9883 12.2858 15.3571 12.2858C14.7259 12.2858 14.2142 11.7741 14.2142 11.1429C14.2142 10.5118 14.7259 10.0001 15.3571 10.0001C15.9883 10.0001 16.4999 10.5118 16.4999 11.1429ZM17.6428 14.5715C18.274 14.5715 18.7856 14.0598 18.7856 13.4287C18.7856 12.7975 18.274 12.2858 17.6428 12.2858C17.0116 12.2858 16.4999 12.7975 16.4999 13.4287C16.4999 14.0598 17.0116 14.5715 17.6428 14.5715ZM14.2142 13.4287C14.2142 14.0598 13.7025 14.5715 13.0714 14.5715C12.4402 14.5715 11.9285 14.0598 11.9285 13.4287C11.9285 12.7975 12.4402 12.2858 13.0714 12.2858C13.7025 12.2858 14.2142 12.7975 14.2142 13.4287ZM8.49994 14.5715C9.13112 14.5715 9.64279 14.0598 9.64279 13.4287C9.64279 12.7975 9.13112 12.2858 8.49994 12.2858C7.86876 12.2858 7.35708 12.7975 7.35708 13.4287C7.35708 14.0598 7.86876 14.5715 8.49994 14.5715ZM5.07137 13.4287C5.07137 14.0598 4.55969 14.5715 3.92851 14.5715C3.29732 14.5715 2.78564 14.0598 2.78564 13.4287C2.78564 12.7975 3.29732 12.2858 3.92851 12.2858C4.55969 12.2858 5.07137 12.7975 5.07137 13.4287Z" fill="url(#paint0_linear_1497_8057)"/>
</g>
</g>
</g>
<defs>
<filter id="filter0_d_1497_8057" x="2.78564" y="3.14294" width="16" height="12.4286" filterUnits="userSpaceOnUse" color-interpolation-filters="sRGB">
<feFlood flood-opacity="0" result="BackgroundImageFix"/>
<feColorMatrix in="SourceAlpha" type="matrix" values="0 0 0 0 0 0 0 0 0 0 0 0 0 0 0 0 0 0 127 0" result="hardAlpha"/>
<feOffset dy="1"/>
<feColorMatrix type="matrix" values="0 0 0 0 0 0 0 0 0 0 0 0 0 0 0 0 0 0 0.06 0"/>
<feBlend mode="normal" in2="BackgroundImageFix" result="effect1_dropShadow_1497_8057"/>
<feBlend mode="normal" in="SourceGraphic" in2="effect1_dropShadow_1497_8057" result="shape"/>
</filter>
<linearGradient id="paint0_linear_1497_8057" x1="2.78564" y1="3.14294" x2="2.78564" y2="14.5715" gradientUnits="userSpaceOnUse">
<stop stop-color="white"/>
<stop offset="1" stop-color="#F0F0F0"/>
</linearGradient>
</defs>
</svg>
